<svg id="Capa_1" enable-background="new 0 0 508.128 508.128" height="512" viewBox="0 0 508.128 508.128" width="512" xmlns="http://www.w3.org/2000/svg"><g><g fill="#eaa895"><path d="m146.81 101.081h-40.191c-9.6 0-17.382-7.782-17.382-17.382v-62.31c0-9.6 7.782-17.382 17.382-17.382h40.191c9.6 0 17.382 7.782 17.382 17.382v62.31c0 9.6-7.782 17.382-17.382 17.382z"/><path d="m399.806 101.081h-40.192c-9.6 0-17.382-7.782-17.382-17.382v-62.31c0-9.6 7.782-17.382 17.382-17.382h40.191c9.6 0 17.382 7.782 17.382 17.382v62.309c.001 9.601-7.781 17.383-17.381 17.383z"/><path d="m297.332 17.524h-87.318c-11.371 0-20.589 9.218-20.589 20.588v47.295c0 11.37 9.218 20.588 20.589 20.588h5.35c-1.36 0-2.462-1.101-2.462-2.461v-61.431c0-1.359 1.102-2.461 2.462-2.461h76.619c1.359 0 2.461 1.102 2.461 2.461v61.431c0 1.36-1.102 2.461-2.461 2.461h5.35c11.371 0 20.589-9.218 20.589-20.588v-47.294c-.002-11.371-9.22-20.589-20.59-20.589z"/></g><path d="m437.498 285.398h-17.165v-42.046c13.947-5.6 23.8-19.239 23.8-35.188v-98.661c0-20.939-16.974-37.914-37.913-37.914h-305.096c-20.939 0-37.913 16.974-37.913 37.914v98.661c0 15.934 9.835 29.563 23.761 35.172v42.061h-16.561c-15.058 0-27.264 12.207-27.264 27.265v110.128c0 15.058 12.207 27.265 27.264 27.265h16.561v24.836c0 16.144 13.087 29.23 29.23 29.23h274.901c16.143 0 29.23-13.086 29.23-29.23v-24.836h17.165c15.058 0 27.264-12.207 27.264-27.265v-110.127c.001-15.058-12.206-27.265-27.264-27.265z" fill="#e9c278"/><path d="m449.907 280.879h-29.471v60.825h39.581c7.755 0 14.043-6.288 14.043-14.043v-22.629c0-13.339-10.814-24.153-24.153-24.153z" fill="#eaa895"/><path d="m87.815 280.879h-29.594c-13.34 0-24.153 10.814-24.153 24.153v22.63c0 7.755 6.287 14.042 14.042 14.042h39.705z" fill="#eaa895"/><g fill="#f9fbfc"><path d="m414.639 247.871c-1.725 0-3.124 1.399-3.124 3.124 0 1.726 1.398 3.124 3.124 3.124 1.725 0 3.124-1.398 3.124-3.124 0-1.725-1.399-3.124-3.124-3.124z"/><path d="m404.19 258.32c-1.725 0-3.124 1.398-3.124 3.124 0 1.725 1.398 3.124 3.124 3.124 1.725 0 3.124-1.399 3.124-3.124 0-1.726-1.399-3.124-3.124-3.124z"/><path d="m414.639 268.01c-1.725 0-3.124 1.399-3.124 3.124 0 1.726 1.398 3.124 3.124 3.124 1.725 0 3.124-1.398 3.124-3.124 0-1.725-1.399-3.124-3.124-3.124z"/><path d="m404.19 278.458c-1.725 0-3.124 1.399-3.124 3.125 0 1.725 1.398 3.124 3.124 3.124 1.725 0 3.124-1.399 3.124-3.124 0-1.726-1.399-3.125-3.124-3.125z"/><path d="m414.639 288.149c-1.725 0-3.124 1.398-3.124 3.124 0 1.725 1.398 3.124 3.124 3.124 1.725 0 3.124-1.399 3.124-3.124 0-1.726-1.399-3.124-3.124-3.124z"/><path d="m404.19 298.597c-1.725 0-3.124 1.399-3.124 3.124 0 1.726 1.398 3.125 3.124 3.125 1.725 0 3.124-1.399 3.124-3.125 0-1.725-1.399-3.124-3.124-3.124z"/><path d="m414.639 308.288c-1.725 0-3.124 1.398-3.124 3.124 0 1.725 1.398 3.124 3.124 3.124 1.725 0 3.124-1.399 3.124-3.124 0-1.726-1.399-3.124-3.124-3.124z"/><path d="m404.19 318.736c-1.725 0-3.124 1.399-3.124 3.124 0 1.726 1.398 3.124 3.124 3.124 1.725 0 3.124-1.398 3.124-3.124 0-1.725-1.399-3.124-3.124-3.124z"/><path d="m414.639 328.427c-1.725 0-3.124 1.398-3.124 3.124 0 1.725 1.398 3.124 3.124 3.124 1.725 0 3.124-1.399 3.124-3.124 0-1.726-1.399-3.124-3.124-3.124z"/><path d="m404.19 338.875c-1.725 0-3.124 1.399-3.124 3.124 0 1.726 1.398 3.124 3.124 3.124 1.725 0 3.124-1.398 3.124-3.124 0-1.725-1.399-3.124-3.124-3.124z"/><path d="m414.639 348.566c-1.725 0-3.124 1.398-3.124 3.124 0 1.725 1.398 3.124 3.124 3.124 1.725 0 3.124-1.399 3.124-3.124 0-1.726-1.399-3.124-3.124-3.124z"/><path d="m404.19 359.014c-1.725 0-3.124 1.399-3.124 3.124 0 1.726 1.398 3.124 3.124 3.124 1.725 0 3.124-1.398 3.124-3.124 0-1.725-1.399-3.124-3.124-3.124z"/><path d="m414.639 368.704c-1.725 0-3.124 1.399-3.124 3.124 0 1.726 1.398 3.125 3.124 3.125 1.725 0 3.124-1.399 3.124-3.125 0-1.725-1.399-3.124-3.124-3.124z"/><path d="m404.19 379.153c-1.725 0-3.124 1.398-3.124 3.124 0 1.725 1.398 3.124 3.124 3.124 1.725 0 3.124-1.399 3.124-3.124 0-1.726-1.399-3.124-3.124-3.124z"/><path d="m414.639 388.843c-1.725 0-3.124 1.399-3.124 3.124 0 1.726 1.398 3.125 3.124 3.125 1.725 0 3.124-1.399 3.124-3.125 0-1.725-1.399-3.124-3.124-3.124z"/><path d="m404.19 399.292c-1.725 0-3.124 1.398-3.124 3.124 0 1.725 1.398 3.124 3.124 3.124 1.725 0 3.124-1.399 3.124-3.124 0-1.726-1.399-3.124-3.124-3.124z"/><path d="m414.639 408.982c-1.725 0-3.124 1.399-3.124 3.124 0 1.726 1.398 3.124 3.124 3.124 1.725 0 3.124-1.398 3.124-3.124 0-1.725-1.399-3.124-3.124-3.124z"/><path d="m404.19 419.431c-1.725 0-3.124 1.398-3.124 3.124 0 1.725 1.398 3.124 3.124 3.124 1.725 0 3.124-1.399 3.124-3.124 0-1.726-1.399-3.124-3.124-3.124z"/><path d="m414.639 429.121c-1.725 0-3.124 1.399-3.124 3.124 0 1.726 1.398 3.124 3.124 3.124 1.725 0 3.124-1.398 3.124-3.124 0-1.725-1.399-3.124-3.124-3.124z"/><path d="m404.19 439.57c-1.725 0-3.124 1.398-3.124 3.124 0 1.725 1.398 3.124 3.124 3.124 1.725 0 3.124-1.399 3.124-3.124 0-1.726-1.399-3.124-3.124-3.124z"/><path d="m414.639 449.26c-1.725 0-3.124 1.398-3.124 3.124s1.398 3.124 3.124 3.124c1.725 0 3.124-1.398 3.124-3.124s-1.399-3.124-3.124-3.124z"/><path d="m404.19 459.708c-1.725 0-3.124 1.399-3.124 3.124 0 1.726 1.398 3.125 3.124 3.125 1.725 0 3.124-1.399 3.124-3.125 0-1.725-1.399-3.124-3.124-3.124z"/><path d="m414.639 469.399c-1.725 0-3.124 1.398-3.124 3.124 0 1.725 1.398 3.124 3.124 3.124 1.725 0 3.124-1.399 3.124-3.124 0-1.726-1.399-3.124-3.124-3.124z"/><path d="m404.19 479.847c-1.725 0-3.124 1.399-3.124 3.124 0 1.726 1.398 3.125 3.124 3.125 1.725 0 3.124-1.399 3.124-3.125 0-1.725-1.399-3.124-3.124-3.124z"/><path d="m394.5 247.871c-1.725 0-3.124 1.399-3.124 3.124 0 1.726 1.399 3.124 3.124 3.124s3.124-1.398 3.124-3.124c0-1.725-1.399-3.124-3.124-3.124z"/><circle cx="384.052" cy="261.444" r="3.124"/><path d="m394.5 268.01c-1.725 0-3.124 1.399-3.124 3.124 0 1.726 1.399 3.124 3.124 3.124s3.124-1.398 3.124-3.124c0-1.725-1.399-3.124-3.124-3.124z"/><path d="m384.052 284.706c1.725 0 3.124-1.399 3.124-3.124 0-1.726-1.399-3.125-3.124-3.125s-3.124 1.399-3.124 3.125c0 1.725 1.398 3.124 3.124 3.124z"/><path d="m394.5 288.149c-1.725 0-3.124 1.398-3.124 3.124 0 1.725 1.399 3.124 3.124 3.124s3.124-1.399 3.124-3.124c0-1.726-1.399-3.124-3.124-3.124z"/><path d="m384.052 304.845c1.725 0 3.124-1.399 3.124-3.125 0-1.725-1.399-3.124-3.124-3.124s-3.124 1.399-3.124 3.124c0 1.727 1.398 3.125 3.124 3.125z"/><path d="m394.5 308.288c-1.725 0-3.124 1.398-3.124 3.124 0 1.725 1.399 3.124 3.124 3.124s3.124-1.399 3.124-3.124c0-1.726-1.399-3.124-3.124-3.124z"/><path d="m384.052 324.983c1.725 0 3.124-1.398 3.124-3.124 0-1.725-1.399-3.124-3.124-3.124s-3.124 1.399-3.124 3.124c0 1.727 1.398 3.124 3.124 3.124z"/><path d="m394.5 328.427c-1.725 0-3.124 1.398-3.124 3.124 0 1.725 1.399 3.124 3.124 3.124s3.124-1.399 3.124-3.124c0-1.726-1.399-3.124-3.124-3.124z"/><path d="m384.052 345.122c1.725 0 3.124-1.398 3.124-3.124 0-1.725-1.399-3.124-3.124-3.124s-3.124 1.399-3.124 3.124c0 1.726 1.398 3.124 3.124 3.124z"/><path d="m394.5 348.566c-1.725 0-3.124 1.398-3.124 3.124 0 1.725 1.399 3.124 3.124 3.124s3.124-1.399 3.124-3.124c0-1.726-1.399-3.124-3.124-3.124z"/><path d="m384.052 365.261c1.725 0 3.124-1.398 3.124-3.124 0-1.725-1.399-3.124-3.124-3.124s-3.124 1.399-3.124 3.124c0 1.726 1.398 3.124 3.124 3.124z"/><path d="m394.5 368.704c-1.725 0-3.124 1.399-3.124 3.124 0 1.726 1.399 3.125 3.124 3.125s3.124-1.399 3.124-3.125c0-1.725-1.399-3.124-3.124-3.124z"/><path d="m384.052 385.4c1.725 0 3.124-1.399 3.124-3.124 0-1.726-1.399-3.124-3.124-3.124s-3.124 1.398-3.124 3.124c0 1.725 1.398 3.124 3.124 3.124z"/><path d="m394.5 388.843c-1.725 0-3.124 1.399-3.124 3.124 0 1.726 1.399 3.125 3.124 3.125s3.124-1.399 3.124-3.125c0-1.725-1.399-3.124-3.124-3.124z"/><circle cx="384.052" cy="402.416" r="3.124"/><path d="m394.5 408.982c-1.725 0-3.124 1.399-3.124 3.124 0 1.726 1.399 3.124 3.124 3.124s3.124-1.398 3.124-3.124c0-1.725-1.399-3.124-3.124-3.124z"/><circle cx="384.052" cy="422.555" r="3.124"/><path d="m394.5 429.121c-1.725 0-3.124 1.399-3.124 3.124 0 1.726 1.399 3.124 3.124 3.124s3.124-1.398 3.124-3.124c0-1.725-1.399-3.124-3.124-3.124z"/><path d="m384.052 445.817c1.725 0 3.124-1.399 3.124-3.124 0-1.726-1.399-3.124-3.124-3.124s-3.124 1.398-3.124 3.124c0 1.725 1.398 3.124 3.124 3.124z"/><path d="m394.5 449.26c-1.725 0-3.124 1.398-3.124 3.124s1.399 3.124 3.124 3.124 3.124-1.398 3.124-3.124-1.399-3.124-3.124-3.124z"/><path d="m384.052 465.956c1.725 0 3.124-1.399 3.124-3.125 0-1.725-1.399-3.124-3.124-3.124s-3.124 1.399-3.124 3.124c0 1.726 1.398 3.125 3.124 3.125z"/><path d="m394.5 469.399c-1.725 0-3.124 1.398-3.124 3.124 0 1.725 1.399 3.124 3.124 3.124s3.124-1.399 3.124-3.124c0-1.726-1.399-3.124-3.124-3.124z"/><path d="m384.052 486.095c1.725 0 3.124-1.399 3.124-3.125 0-1.725-1.399-3.124-3.124-3.124s-3.124 1.399-3.124 3.124c0 1.726 1.398 3.125 3.124 3.125z"/><path d="m394.5 495.785c1.725 0 3.124-1.399 3.124-3.124 0-1.726-1.399-3.124-3.124-3.124s-3.124 1.398-3.124 3.124c0 1.725 1.399 3.124 3.124 3.124z"/><path d="m374.361 254.118c1.725 0 3.124-1.398 3.124-3.124 0-1.725-1.399-3.124-3.124-3.124s-3.124 1.399-3.124 3.124c0 1.726 1.399 3.124 3.124 3.124z"/><path d="m363.913 264.568c1.725 0 3.124-1.399 3.124-3.124 0-1.726-1.398-3.124-3.124-3.124-1.725 0-3.124 1.398-3.124 3.124 0 1.724 1.398 3.124 3.124 3.124z"/><path d="m374.361 274.257c1.725 0 3.124-1.398 3.124-3.124 0-1.725-1.399-3.124-3.124-3.124s-3.124 1.399-3.124 3.124c0 1.726 1.399 3.124 3.124 3.124z"/><path d="m363.913 284.706c1.725 0 3.124-1.399 3.124-3.124 0-1.726-1.398-3.125-3.124-3.125-1.725 0-3.124 1.399-3.124 3.125 0 1.725 1.398 3.124 3.124 3.124z"/><path d="m374.361 294.396c1.725 0 3.124-1.399 3.124-3.124 0-1.726-1.399-3.124-3.124-3.124s-3.124 1.398-3.124 3.124c0 1.725 1.399 3.124 3.124 3.124z"/><path d="m363.913 304.845c1.725 0 3.124-1.399 3.124-3.125 0-1.725-1.398-3.124-3.124-3.124-1.725 0-3.124 1.399-3.124 3.124 0 1.727 1.398 3.125 3.124 3.125z"/><path d="m374.361 314.535c1.725 0 3.124-1.399 3.124-3.124 0-1.726-1.399-3.124-3.124-3.124s-3.124 1.398-3.124 3.124c0 1.725 1.399 3.124 3.124 3.124z"/><path d="m363.913 324.983c1.725 0 3.124-1.398 3.124-3.124 0-1.725-1.398-3.124-3.124-3.124-1.725 0-3.124 1.399-3.124 3.124 0 1.727 1.398 3.124 3.124 3.124z"/><path d="m374.361 334.674c1.725 0 3.124-1.399 3.124-3.124 0-1.726-1.399-3.124-3.124-3.124s-3.124 1.398-3.124 3.124c0 1.725 1.399 3.124 3.124 3.124z"/><path d="m363.913 345.122c1.725 0 3.124-1.398 3.124-3.124 0-1.725-1.398-3.124-3.124-3.124-1.725 0-3.124 1.399-3.124 3.124 0 1.726 1.398 3.124 3.124 3.124z"/><path d="m374.361 354.813c1.725 0 3.124-1.399 3.124-3.124 0-1.726-1.399-3.124-3.124-3.124s-3.124 1.398-3.124 3.124c0 1.725 1.399 3.124 3.124 3.124z"/><path d="m363.913 365.261c1.725 0 3.124-1.398 3.124-3.124 0-1.725-1.398-3.124-3.124-3.124-1.725 0-3.124 1.399-3.124 3.124 0 1.726 1.398 3.124 3.124 3.124z"/><path d="m374.361 374.952c1.725 0 3.124-1.399 3.124-3.125 0-1.725-1.399-3.124-3.124-3.124s-3.124 1.399-3.124 3.124c0 1.726 1.399 3.125 3.124 3.125z"/><path d="m363.913 385.4c1.725 0 3.124-1.399 3.124-3.124 0-1.726-1.398-3.124-3.124-3.124-1.725 0-3.124 1.398-3.124 3.124 0 1.725 1.398 3.124 3.124 3.124z"/><path d="m374.361 395.091c1.725 0 3.124-1.399 3.124-3.125 0-1.725-1.399-3.124-3.124-3.124s-3.124 1.399-3.124 3.124c0 1.726 1.399 3.125 3.124 3.125z"/><path d="m363.913 405.539c1.725 0 3.124-1.399 3.124-3.124 0-1.726-1.398-3.124-3.124-3.124-1.725 0-3.124 1.398-3.124 3.124 0 1.725 1.398 3.124 3.124 3.124z"/><path d="m374.361 415.229c1.725 0 3.124-1.398 3.124-3.124 0-1.725-1.399-3.124-3.124-3.124s-3.124 1.399-3.124 3.124c0 1.726 1.399 3.124 3.124 3.124z"/><path d="m363.913 425.678c1.725 0 3.124-1.399 3.124-3.124 0-1.726-1.398-3.124-3.124-3.124-1.725 0-3.124 1.398-3.124 3.124 0 1.725 1.398 3.124 3.124 3.124z"/><path d="m374.361 435.368c1.725 0 3.124-1.398 3.124-3.124 0-1.725-1.399-3.124-3.124-3.124s-3.124 1.399-3.124 3.124c0 1.726 1.399 3.124 3.124 3.124z"/><path d="m363.913 445.817c1.725 0 3.124-1.399 3.124-3.124 0-1.726-1.398-3.124-3.124-3.124-1.725 0-3.124 1.398-3.124 3.124 0 1.725 1.398 3.124 3.124 3.124z"/><path d="m374.361 455.507c1.725 0 3.124-1.398 3.124-3.124s-1.399-3.124-3.124-3.124-3.124 1.398-3.124 3.124 1.399 3.124 3.124 3.124z"/><path d="m363.913 465.956c1.725 0 3.124-1.399 3.124-3.125 0-1.725-1.398-3.124-3.124-3.124-1.725 0-3.124 1.399-3.124 3.124 0 1.726 1.398 3.125 3.124 3.125z"/><path d="m374.361 475.646c1.725 0 3.124-1.399 3.124-3.124 0-1.726-1.399-3.124-3.124-3.124s-3.124 1.398-3.124 3.124c0 1.725 1.399 3.124 3.124 3.124z"/><path d="m363.913 486.095c1.725 0 3.124-1.399 3.124-3.125 0-1.725-1.398-3.124-3.124-3.124-1.725 0-3.124 1.399-3.124 3.124 0 1.726 1.398 3.125 3.124 3.125z"/><path d="m374.361 495.785c1.725 0 3.124-1.399 3.124-3.124 0-1.726-1.399-3.124-3.124-3.124s-3.124 1.398-3.124 3.124c0 1.725 1.399 3.124 3.124 3.124z"/></g><g fill="#f9fbfc"><path d="m429.386 97.208c-1.725 0-3.124 1.399-3.124 3.125 0 1.725 1.399 3.124 3.124 3.124s3.124-1.399 3.124-3.124c0-1.726-1.399-3.125-3.124-3.125z"/><path d="m439.834 106.899c-1.725 0-3.124 1.398-3.124 3.124s1.399 3.124 3.124 3.124 3.124-1.398 3.124-3.124-1.398-3.124-3.124-3.124z"/><path d="m429.386 117.347c-1.725 0-3.124 1.399-3.124 3.124 0 1.726 1.399 3.125 3.124 3.125s3.124-1.399 3.124-3.125c0-1.725-1.399-3.124-3.124-3.124z"/><circle cx="439.834" cy="130.162" r="3.124"/><path d="m429.386 137.486c-1.725 0-3.124 1.399-3.124 3.124 0 1.726 1.399 3.125 3.124 3.125s3.124-1.399 3.124-3.125c0-1.725-1.399-3.124-3.124-3.124z"/><circle cx="439.834" cy="150.301" r="3.124"/><path d="m429.386 157.625c-1.725 0-3.124 1.399-3.124 3.124 0 1.726 1.399 3.124 3.124 3.124s3.124-1.398 3.124-3.124c0-1.725-1.399-3.124-3.124-3.124z"/><path d="m439.834 167.315c-1.725 0-3.124 1.399-3.124 3.125 0 1.725 1.399 3.124 3.124 3.124s3.124-1.399 3.124-3.124c0-1.726-1.398-3.125-3.124-3.125z"/><path d="m429.386 177.764c-1.725 0-3.124 1.399-3.124 3.124 0 1.726 1.399 3.124 3.124 3.124s3.124-1.398 3.124-3.124c0-1.725-1.399-3.124-3.124-3.124z"/><path d="m439.834 187.454c-1.725 0-3.124 1.399-3.124 3.125 0 1.725 1.399 3.124 3.124 3.124s3.124-1.399 3.124-3.124c0-1.726-1.398-3.125-3.124-3.125z"/><path d="m429.386 197.903c-1.725 0-3.124 1.398-3.124 3.124s1.399 3.124 3.124 3.124 3.124-1.398 3.124-3.124-1.399-3.124-3.124-3.124z"/><path d="m439.834 213.841c1.725 0 3.124-1.399 3.124-3.125 0-1.725-1.399-3.124-3.124-3.124s-3.124 1.399-3.124 3.124c.001 1.727 1.399 3.125 3.124 3.125z"/><path d="m429.386 218.042c-1.725 0-3.124 1.398-3.124 3.124 0 1.725 1.399 3.124 3.124 3.124s3.124-1.399 3.124-3.124c0-1.726-1.399-3.124-3.124-3.124z"/><path d="m409.247 77.07c-1.725 0-3.124 1.398-3.124 3.124 0 1.725 1.399 3.124 3.124 3.124s3.124-1.399 3.124-3.124c0-1.726-1.399-3.124-3.124-3.124z"/><path d="m419.696 86.76c-1.725 0-3.124 1.399-3.124 3.124 0 1.726 1.399 3.124 3.124 3.124s3.124-1.398 3.124-3.124c-.001-1.725-1.399-3.124-3.124-3.124z"/><path d="m409.247 97.208c-1.725 0-3.124 1.399-3.124 3.125 0 1.725 1.399 3.124 3.124 3.124s3.124-1.399 3.124-3.124c0-1.726-1.399-3.125-3.124-3.125z"/><path d="m419.696 106.899c-1.725 0-3.124 1.398-3.124 3.124s1.399 3.124 3.124 3.124 3.124-1.398 3.124-3.124-1.399-3.124-3.124-3.124z"/><path d="m409.247 117.347c-1.725 0-3.124 1.399-3.124 3.124 0 1.726 1.399 3.125 3.124 3.125s3.124-1.399 3.124-3.125c0-1.725-1.399-3.124-3.124-3.124z"/><path d="m419.696 127.038c-1.725 0-3.124 1.398-3.124 3.124 0 1.725 1.399 3.124 3.124 3.124s3.124-1.399 3.124-3.124c-.001-1.726-1.399-3.124-3.124-3.124z"/><path d="m409.247 137.486c-1.725 0-3.124 1.399-3.124 3.124 0 1.726 1.399 3.125 3.124 3.125s3.124-1.399 3.124-3.125c0-1.725-1.399-3.124-3.124-3.124z"/><path d="m419.696 147.177c-1.725 0-3.124 1.398-3.124 3.124 0 1.725 1.399 3.124 3.124 3.124s3.124-1.399 3.124-3.124c-.001-1.726-1.399-3.124-3.124-3.124z"/><path d="m409.247 157.625c-1.725 0-3.124 1.399-3.124 3.124 0 1.726 1.399 3.124 3.124 3.124s3.124-1.398 3.124-3.124c0-1.725-1.399-3.124-3.124-3.124z"/><path d="m419.696 167.315c-1.725 0-3.124 1.399-3.124 3.125 0 1.725 1.399 3.124 3.124 3.124s3.124-1.399 3.124-3.124c-.001-1.726-1.399-3.125-3.124-3.125z"/><path d="m409.247 177.764c-1.725 0-3.124 1.399-3.124 3.124 0 1.726 1.399 3.124 3.124 3.124s3.124-1.398 3.124-3.124c0-1.725-1.399-3.124-3.124-3.124z"/><path d="m419.696 187.454c-1.725 0-3.124 1.399-3.124 3.125 0 1.725 1.399 3.124 3.124 3.124s3.124-1.399 3.124-3.124c-.001-1.726-1.399-3.125-3.124-3.125z"/><path d="m409.247 197.903c-1.725 0-3.124 1.398-3.124 3.124s1.399 3.124 3.124 3.124 3.124-1.398 3.124-3.124-1.399-3.124-3.124-3.124z"/><path d="m419.696 207.593c-1.725 0-3.124 1.399-3.124 3.124 0 1.726 1.399 3.125 3.124 3.125s3.124-1.399 3.124-3.125c-.001-1.725-1.399-3.124-3.124-3.124z"/><path d="m409.247 218.042c-1.725 0-3.124 1.398-3.124 3.124 0 1.725 1.399 3.124 3.124 3.124s3.124-1.399 3.124-3.124c0-1.726-1.399-3.124-3.124-3.124z"/><path d="m419.696 227.732c-1.725 0-3.124 1.399-3.124 3.124 0 1.726 1.399 3.124 3.124 3.124s3.124-1.398 3.124-3.124c-.001-1.725-1.399-3.124-3.124-3.124z"/><path d="m409.247 244.428c1.725 0 3.124-1.399 3.124-3.124 0-1.726-1.398-3.124-3.124-3.124s-3.124 1.398-3.124 3.124c0 1.725 1.399 3.124 3.124 3.124z"/><path d="m389.108 77.07c-1.725 0-3.124 1.398-3.124 3.124 0 1.725 1.398 3.124 3.124 3.124 1.725 0 3.124-1.399 3.124-3.124 0-1.726-1.399-3.124-3.124-3.124z"/><path d="m399.557 86.76c-1.725 0-3.124 1.399-3.124 3.124 0 1.726 1.399 3.124 3.124 3.124s3.124-1.398 3.124-3.124c-.001-1.725-1.399-3.124-3.124-3.124z"/><path d="m389.108 97.208c-1.725 0-3.124 1.399-3.124 3.125 0 1.725 1.398 3.124 3.124 3.124 1.725 0 3.124-1.399 3.124-3.124 0-1.726-1.399-3.125-3.124-3.125z"/><path d="m399.557 106.899c-1.725 0-3.124 1.398-3.124 3.124s1.399 3.124 3.124 3.124 3.124-1.398 3.124-3.124-1.399-3.124-3.124-3.124z"/><path d="m389.108 117.347c-1.725 0-3.124 1.399-3.124 3.124 0 1.726 1.398 3.125 3.124 3.125 1.725 0 3.124-1.399 3.124-3.125 0-1.725-1.399-3.124-3.124-3.124z"/><path d="m399.557 127.038c-1.725 0-3.124 1.398-3.124 3.124 0 1.725 1.399 3.124 3.124 3.124s3.124-1.399 3.124-3.124c-.001-1.726-1.399-3.124-3.124-3.124z"/><path d="m389.108 137.486c-1.725 0-3.124 1.399-3.124 3.124 0 1.726 1.398 3.125 3.124 3.125 1.725 0 3.124-1.399 3.124-3.125 0-1.725-1.399-3.124-3.124-3.124z"/><path d="m399.557 147.177c-1.725 0-3.124 1.398-3.124 3.124 0 1.725 1.399 3.124 3.124 3.124s3.124-1.399 3.124-3.124c-.001-1.726-1.399-3.124-3.124-3.124z"/><path d="m389.108 157.625c-1.725 0-3.124 1.399-3.124 3.124 0 1.726 1.398 3.124 3.124 3.124 1.725 0 3.124-1.398 3.124-3.124 0-1.725-1.399-3.124-3.124-3.124z"/><path d="m399.557 167.315c-1.725 0-3.124 1.399-3.124 3.125 0 1.725 1.399 3.124 3.124 3.124s3.124-1.399 3.124-3.124c-.001-1.726-1.399-3.125-3.124-3.125z"/><path d="m389.108 177.764c-1.725 0-3.124 1.399-3.124 3.124 0 1.726 1.398 3.124 3.124 3.124 1.725 0 3.124-1.398 3.124-3.124 0-1.725-1.399-3.124-3.124-3.124z"/><path d="m399.557 187.454c-1.725 0-3.124 1.399-3.124 3.125 0 1.725 1.399 3.124 3.124 3.124s3.124-1.399 3.124-3.124c-.001-1.726-1.399-3.125-3.124-3.125z"/><path d="m389.108 197.903c-1.725 0-3.124 1.398-3.124 3.124s1.398 3.124 3.124 3.124c1.725 0 3.124-1.398 3.124-3.124s-1.399-3.124-3.124-3.124z"/><path d="m399.557 207.593c-1.725 0-3.124 1.399-3.124 3.124 0 1.726 1.399 3.125 3.124 3.125s3.124-1.399 3.124-3.125c-.001-1.725-1.399-3.124-3.124-3.124z"/><path d="m389.108 218.042c-1.725 0-3.124 1.398-3.124 3.124 0 1.725 1.398 3.124 3.124 3.124 1.725 0 3.124-1.399 3.124-3.124 0-1.726-1.399-3.124-3.124-3.124z"/><path d="m399.557 227.732c-1.725 0-3.124 1.399-3.124 3.124 0 1.726 1.399 3.124 3.124 3.124s3.124-1.398 3.124-3.124c-.001-1.725-1.399-3.124-3.124-3.124z"/><circle cx="389.108" cy="241.305" r="3.124"/><path d="m368.969 77.07c-1.725 0-3.124 1.398-3.124 3.124 0 1.725 1.398 3.124 3.124 3.124 1.725 0 3.124-1.399 3.124-3.124 0-1.726-1.399-3.124-3.124-3.124z"/><path d="m379.418 86.76c-1.725 0-3.124 1.399-3.124 3.124 0 1.726 1.398 3.124 3.124 3.124 1.725 0 3.124-1.398 3.124-3.124 0-1.725-1.399-3.124-3.124-3.124z"/><path d="m368.969 97.208c-1.725 0-3.124 1.399-3.124 3.125 0 1.725 1.398 3.124 3.124 3.124 1.725 0 3.124-1.399 3.124-3.124 0-1.726-1.399-3.125-3.124-3.125z"/><path d="m379.418 106.899c-1.725 0-3.124 1.398-3.124 3.124s1.398 3.124 3.124 3.124c1.725 0 3.124-1.398 3.124-3.124s-1.399-3.124-3.124-3.124z"/><path d="m368.969 117.347c-1.725 0-3.124 1.399-3.124 3.124 0 1.726 1.398 3.125 3.124 3.125 1.725 0 3.124-1.399 3.124-3.125 0-1.725-1.399-3.124-3.124-3.124z"/><path d="m379.418 127.038c-1.725 0-3.124 1.398-3.124 3.124 0 1.725 1.398 3.124 3.124 3.124 1.725 0 3.124-1.399 3.124-3.124 0-1.726-1.399-3.124-3.124-3.124z"/><path d="m368.969 137.486c-1.725 0-3.124 1.399-3.124 3.124 0 1.726 1.398 3.125 3.124 3.125 1.725 0 3.124-1.399 3.124-3.125 0-1.725-1.399-3.124-3.124-3.124z"/><path d="m379.418 147.177c-1.725 0-3.124 1.398-3.124 3.124 0 1.725 1.398 3.124 3.124 3.124 1.725 0 3.124-1.399 3.124-3.124 0-1.726-1.399-3.124-3.124-3.124z"/><path d="m368.969 157.625c-1.725 0-3.124 1.399-3.124 3.124 0 1.726 1.398 3.124 3.124 3.124 1.725 0 3.124-1.398 3.124-3.124 0-1.725-1.399-3.124-3.124-3.124z"/><path d="m379.418 167.315c-1.725 0-3.124 1.399-3.124 3.125 0 1.725 1.398 3.124 3.124 3.124 1.725 0 3.124-1.399 3.124-3.124 0-1.726-1.399-3.125-3.124-3.125z"/><path d="m379.418 187.454c-1.725 0-3.124 1.399-3.124 3.125 0 1.725 1.398 3.124 3.124 3.124 1.725 0 3.124-1.399 3.124-3.124 0-1.726-1.399-3.125-3.124-3.125z"/><path d="m379.418 207.593c-1.725 0-3.124 1.399-3.124 3.124 0 1.726 1.398 3.125 3.124 3.125 1.725 0 3.124-1.399 3.124-3.125 0-1.725-1.399-3.124-3.124-3.124z"/><path d="m368.969 218.042c-1.725 0-3.124 1.398-3.124 3.124 0 1.725 1.398 3.124 3.124 3.124 1.725 0 3.124-1.399 3.124-3.124 0-1.726-1.399-3.124-3.124-3.124z"/><path d="m379.418 227.732c-1.725 0-3.124 1.399-3.124 3.124 0 1.726 1.398 3.124 3.124 3.124 1.725 0 3.124-1.398 3.124-3.124 0-1.725-1.399-3.124-3.124-3.124z"/><path d="m368.969 238.181c-1.725 0-3.124 1.398-3.124 3.124 0 1.725 1.398 3.124 3.124 3.124 1.725 0 3.124-1.399 3.124-3.124 0-1.726-1.399-3.124-3.124-3.124z"/></g><path d="m186.992 312.816-11.71 15.777c-3.496 4.71-8.989 4.615-12.403-.215l-11.024-15.595c-1.682-2.38-2.628-5.616-2.628-8.991v-116.708c0-7.002 3.988-12.677 8.908-12.677h22.735c4.92 0 8.908 5.676 8.908 12.677v116.525c-.002 3.483-1.009 6.813-2.786 9.207z" fill="#eaa895"/><path d="m356.413 312.816-11.71 15.777c-3.496 4.71-8.989 4.615-12.403-.215l-11.024-15.595c-1.682-2.38-2.628-5.616-2.628-8.991v-116.708c0-7.002 3.988-12.677 8.908-12.677h22.734c4.919 0 8.908 5.676 8.908 12.677v116.525c-.001 3.483-1.008 6.813-2.785 9.207z" fill="#eaa895"/><path d="m316.978 428.429h-126.611c-12.978 0-23.499-10.521-23.499-23.499v-13.522c0-6.153 4.988-11.142 11.142-11.142h151.325c6.154 0 11.142 4.988 11.142 11.142v13.522c0 12.978-10.521 23.499-23.499 23.499z" fill="#eaa895"/><path d="m344.484 391.429c0-8.364-6.805-15.169-15.169-15.169h-151.285c-8.363 0-15.168 6.805-15.168 15.169v13.46c0 3.547.681 6.936 1.908 10.053 0 .084-.007.166-.007.25v25.489c0 18.897 15.373 34.27 34.269 34.27h109.281c18.897 0 34.27-15.374 34.27-34.27v-25.489c0-.082-.008-.162-.009-.246 1.228-3.118 1.91-6.509 1.91-10.058zm-173.608 0c0-3.945 3.21-7.155 7.154-7.155h151.285c3.945 0 7.155 3.21 7.155 7.155v13.46c0 10.771-8.763 19.533-19.534 19.533h-126.528c-10.77 0-19.532-8.763-19.532-19.533zm137.437 75.509h-109.281c-14.478 0-26.255-11.779-26.255-26.256v-14.647c4.781 3.993 10.93 6.402 17.632 6.402h126.528c6.703 0 12.851-2.409 17.633-6.402v14.647c-.001 14.477-11.779 26.256-26.257 26.256z" fill="#31373d"/><path d="m449.907 276.872h-25.567v-30.911c14.067-6.772 23.8-21.168 23.8-37.797v-98.661c0-17.84-11.206-33.103-26.945-39.145v-48.938c0-11.812-9.609-21.42-21.42-21.42h-40.13c-11.811 0-21.42 9.609-21.42 21.42v46.162h-16.299v-29.576c0-13.503-10.986-24.489-24.489-24.489h-87.53c-13.503 0-24.489 10.986-24.489 24.489v29.576h-17.219v-46.162c0-11.812-9.609-21.42-21.42-21.42h-40.13c-11.811 0-21.419 9.609-21.419 21.42v49.301c-15.254 6.276-26.025 21.291-26.025 38.782v98.661c0 16.613 9.714 31 23.761 37.779v30.929h-24.745c-15.527 0-28.16 12.633-28.16 28.16v22.63c0 6.686 3.663 12.521 9.079 15.64v79.489c0 17.243 14.029 31.272 31.272 31.272h12.553v20.829c0 18.327 14.91 33.237 33.237 33.237h274.901c18.327 0 33.237-14.91 33.237-33.237v-20.829h13.158c17.243 0 31.271-14.029 31.271-31.272v-79.356c5.538-3.086 9.298-8.996 9.298-15.774v-22.629c0-15.527-12.633-28.16-28.16-28.16zm-366.942 169.176h-12.553c-12.824 0-23.258-10.433-23.258-23.258v-77.128c.319.018.634.049.957.049h34.854zm0-108.351h-34.854c-5.533 0-10.035-4.502-10.035-10.035v-22.63c0-11.108 9.037-20.146 20.146-20.146h24.744v52.811zm263.275-316.277c0-7.392 6.013-13.406 13.405-13.406h40.13c7.392 0 13.405 6.014 13.405 13.406v46.751c-2.265-.381-4.589-.589-6.961-.589h-59.979zm-152.808 16.586c0-9.084 7.391-16.475 16.475-16.475h87.53c9.084 0 16.475 7.391 16.475 16.475v29.576h-15.462v-25.491c0-3.56-2.896-6.456-6.456-6.456h-76.644c-3.56 0-6.456 2.896-6.456 6.456v25.492h-15.463v-29.577zm97.004 5.643v23.934h-73.527v-23.934zm-197.192-22.229c0-7.392 6.014-13.406 13.405-13.406h40.13c7.392 0 13.405 6.014 13.405 13.406v46.162h-59.061c-2.694 0-5.326.265-7.88.753v-46.915zm323.082 453.471c0 13.908-11.315 25.223-25.223 25.223h-274.901c-13.908 0-25.223-11.315-25.223-25.223v-226.055c3.25.811 6.647 1.248 10.145 1.248h44.095v53.708c0 4.22 1.195 8.235 3.362 11.305l11.024 15.593c2.387 3.377 5.826 5.339 9.434 5.38.039.001.078.001.117.001 3.538 0 6.938-1.85 9.343-5.09l11.71-15.777c2.305-3.104 3.574-7.222 3.574-11.595v-53.525h120.857v53.708c0 4.22 1.194 8.235 3.362 11.305l11.024 15.593c2.387 3.377 5.826 5.339 9.434 5.38.039.001.078.001.117.001 3.538 0 6.938-1.85 9.343-5.09l11.71-15.777c2.304-3.104 3.573-7.222 3.573-11.595v-53.525h43.017c3.484 0 6.867-.434 10.106-1.239zm-263.093-171.099v-83.188c.422.03.842.065 1.272.065h29.974c.436 0 .863-.034 1.29-.066v83.006c0 2.626-.727 5.111-1.995 6.818v.001l-11.71 15.777c-.887 1.195-1.918 1.852-2.906 1.852-.009 0-.017 0-.025 0-1.023-.012-2.083-.719-2.982-1.993l-11.024-15.593c-1.204-1.703-1.894-4.138-1.894-6.679zm169.422 0v-83.205c.535.049 1.074.082 1.621.082h29.974c.318 0 .627-.031.94-.048v82.988c0 2.626-.727 5.111-1.994 6.819l-11.71 15.777c-.894 1.206-1.929 1.901-2.932 1.852-1.023-.012-2.083-.719-2.982-1.993l-11.024-15.593c-1.204-1.703-1.893-4.138-1.893-6.679zm83.566-61.722h-43.017v-23.891c5.116-3.061 8.56-8.641 8.56-15.024v-24.786c0-9.658-7.857-17.514-17.514-17.514h-29.974c-9.657 0-17.513 7.857-17.513 17.514v24.786c0 6.099 3.137 11.472 7.878 14.611v24.304h-120.858v-24.103c4.923-3.104 8.21-8.575 8.21-14.812v-24.786c0-9.658-7.857-17.514-17.514-17.514h-29.974c-9.657 0-17.513 7.857-17.513 17.514v24.786c0 6.244 3.295 11.721 8.227 14.823v24.092h-44.095c-18.695 0-33.905-15.21-33.905-33.905v-98.661c0-18.696 15.21-33.906 33.905-33.906h305.097c18.695 0 33.905 15.21 33.905 33.906v98.661c0 18.694-15.21 33.905-33.905 33.905zm54.534 180.72c0 12.824-10.433 23.258-23.257 23.258h-13.158v-100.337h35.677c.249 0 .491-.027.738-.037zm9.298-95.129c0 5.534-4.502 10.036-10.035 10.036h-35.677v-52.811h25.567c11.108 0 20.146 9.037 20.146 20.146v22.629z" fill="#31373d"/></g></svg>