<?xml version="1.0" encoding="iso-8859-1"?>
<!-- Generator: Adobe Illustrator 19.0.0, SVG Export Plug-In . SVG Version: 6.00 Build 0)  -->
<svg version="1.1" id="Capa_1" xmlns="http://www.w3.org/2000/svg" xmlns:xlink="http://www.w3.org/1999/xlink" x="0px" y="0px"
	 viewBox="0 0 512 512" style="enable-background:new 0 0 512 512;" xml:space="preserve">
<polygon style="fill:#E6EAF0;" points="372.812,458.231 348.244,458.231 348.244,137.582 318.244,137.582 318.244,458.231 
	292.187,458.231 292.187,488.231 318.244,488.231 318.244,512 348.244,512 348.244,488.231 372.812,488.231 "/>
<polygon style="fill:#C6DAEE;" points="348.244,458.231 348.244,137.582 332.714,137.582 332.714,512 348.244,512 348.244,488.231 
	372.812,488.231 372.812,458.231 "/>
<path style="fill:#004244;" d="M454.748,133.127c-10.009,0-19.605-3.482-27.361-9.995c-12.17-10.221-62.043-78.618-77.038-99.338
	L368.676,1.33c23.528,10.63,101.254,46.118,113.578,56.468c8.726,7.327,14.076,17.614,15.064,28.966
	c0.988,11.351-2.503,22.408-9.83,31.134c-7.328,8.726-17.615,14.076-28.967,15.064C457.259,133.073,456,133.127,454.748,133.127z
	 M409.289,53.205c18.12,24.116,33.266,43.418,37.396,46.959c2.583,2.169,5.864,3.203,9.233,2.912
	c3.368-0.293,6.421-1.881,8.595-4.47c2.175-2.59,3.211-5.871,2.918-9.239c-0.294-3.368-1.881-6.421-4.471-8.595
	C458.609,77.282,436.592,66.189,409.289,53.205z"/>
<path style="fill:#002C3C;" d="M454.748,133.127c-10.009,0-19.605-3.482-27.361-9.995c-12.17-10.221-62.043-78.618-77.038-99.338
	L368.676,1.33c23.528,10.63,101.254,46.118,113.578,56.468c8.726,7.327,14.076,17.614,15.064,28.966
	c0.988,11.351-2.503,22.408-9.83,31.134c-7.328,8.726-17.615,14.076-28.967,15.064C457.259,133.073,456,133.127,454.748,133.127z
	 M409.289,53.205c18.12,24.116,33.266,43.418,37.396,46.959c2.583,2.169,5.864,3.203,9.233,2.912
	c3.368-0.293,6.421-1.881,8.595-4.47c2.175-2.59,3.211-5.871,2.918-9.239c-0.294-3.368-1.881-6.421-4.471-8.595
	C458.609,77.282,436.592,66.189,409.289,53.205z"/>
<path style="fill:#004244;" d="M57.191,133.105c-12.179,0-24.274-5.172-32.701-15.206C9.363,99.886,11.711,72.925,29.724,57.798
	C42.048,47.448,119.775,11.96,143.303,1.33l18.327,22.464c-14.996,20.72-64.869,89.118-77.039,99.338
	C76.612,129.833,66.875,133.105,57.191,133.105z M102.688,53.206C75.378,66.194,53.357,77.29,48.989,80.794
	c-5.317,4.466-6.015,12.467-1.525,17.812c4.489,5.345,12.488,6.041,17.834,1.553C69.425,96.621,84.571,77.318,102.688,53.206z"/>
<polygon style="fill:#E6EAF0;" points="193.734,137.582 163.734,137.582 163.734,458.231 139.165,458.231 139.165,488.231 
	163.734,488.231 163.734,512 193.734,512 193.734,488.231 219.791,488.231 219.791,458.231 193.734,458.231 "/>
<polygon style="fill:#005357;" points="287.5,137.582 287.5,0 377.5,0 377.5,137.197 "/>
<polygon style="fill:#C6DAEE;" points="193.734,458.231 193.734,137.582 177.714,137.582 177.714,512 193.734,512 193.734,488.231 
	219.791,488.231 219.791,458.231 "/>
<polygon style="fill:#004244;" points="332.714,0 332.714,137.388 377.5,137.197 377.5,0 "/>
<polygon style="fill:#005357;" points="224.478,137.582 134.478,137.197 134.478,0 224.478,0 "/>
<polygon style="fill:#004244;" points="177.714,0 177.714,137.382 224.478,137.582 224.478,0 "/>
<rect x="134.48" y="59.5" style="fill:#F3953E;" width="90" height="31.5"/>
<rect x="177.71" y="59.5" style="fill:#EC6C32;" width="46.765" height="31.5"/>
<rect x="116.48" y="122.58" style="fill:#004244;" width="124.51" height="30"/>
<rect x="177.71" y="122.58" style="fill:#002C3C;" width="63.28" height="30"/>
<rect x="287.5" y="59.5" style="fill:#F3953E;" width="90" height="31.5"/>
<rect x="332.71" y="59.5" style="fill:#EC6C32;" width="44.786" height="31.5"/>
<rect x="270.99" y="122.58" style="fill:#004244;" width="124.51" height="30"/>
<rect x="332.71" y="122.58" style="fill:#002C3C;" width="62.786" height="30"/>
<g>
</g>
<g>
</g>
<g>
</g>
<g>
</g>
<g>
</g>
<g>
</g>
<g>
</g>
<g>
</g>
<g>
</g>
<g>
</g>
<g>
</g>
<g>
</g>
<g>
</g>
<g>
</g>
<g>
</g>
</svg>
