<svg height="465pt" viewBox="-33 0 465 465.432" width="465pt" xmlns="http://www.w3.org/2000/svg"><path d="m81.625 19.910156-77.40625 106.5625c7.742188 7.742188 15.488281 15.488282 23.230469 23.230469l85.441406-129.78125h-31.265625zm0 0" fill="#f9a287"/><path d="m27.449219 153.703125c-1.054688 0-2.070313-.414063-2.832031-1.167969l-23.230469-23.230468c-1.39062525-1.394532-1.558594-3.585938-.410157-5.175782l77.410157-106.570312c.75-1.03125 1.953125-1.648438 3.230469-1.648438h31.273437c1.472656 0 2.824219.808594 3.519531 2.105469.695313 1.296875.632813 2.871094-.175781 4.097656l-85.441406 129.78125c-.664063 1-1.734375 1.65625-2.933594 1.785157-.136719.015624-.273437.023437-.410156.023437zm-17.984375-27.648437 17.34375 17.34375 78.664062-119.488282h-21.804687zm0 0" fill="#63312d"/><path d="m105.9375 42.671875-20.824219-26.457031 20.824219-12.214844h41.65625l20.824219 12.214844-20.824219 26.457031zm0 0" fill="#52b8d9"/><path d="m147.59375 46.671875h-41.65625c-1.222656 0-2.382812-.558594-3.144531-1.527344l-20.824219-26.449219c-.710938-.902343-1-2.078124-.78125-3.214843.214844-1.136719.910156-2.121094 1.902344-2.703125l20.824218-12.226563c.617188-.359375 1.3125-.550781 2.023438-.550781h41.65625c.710938 0 1.410156.191406 2.023438.550781l20.832031 12.226563c1 .582031 1.6875 1.566406 1.90625 2.703125.214843 1.136719-.074219 2.3125-.785157 3.214843l-20.832031 26.449219c-.761719.960938-1.921875 1.527344-3.144531 1.527344zm-39.710938-8h37.765626l16.792968-21.320313-15.933594-9.351562h-39.480468l-15.929688 9.351562zm0 0" fill="#63312d"/><path d="m147.625 158.679688 10.921875 20.175781-15.878906 9.34375h-31.800781l-15.890626-9.34375 10.960938-20.175781zm0 0" fill="#52b8d9"/><path d="m142.660156 192.199219h-31.792968c-.714844 0-1.417969-.191407-2.023438-.550781l-15.890625-9.335938c-1.855469-1.097656-2.511719-3.464844-1.488281-5.359375l10.960937-20.175781c.695313-1.289063 2.046875-2.089844 3.511719-2.089844h41.679688c1.472656 0 2.816406.808594 3.511718 2.097656l10.929688 20.175782c1.023437 1.894531.367187 4.261718-1.488282 5.351562l-15.886718 9.335938c-.609375.359374-1.3125.550781-2.023438.550781zm-30.699218-8h29.617187l11.625-6.832031-7.953125-14.679688h-36.917969l-7.984375 14.6875zm0 0" fill="#63312d"/><path d="m144.714844 60.335938 2.910156-17.664063h-41.6875l2.90625 17.664063-2.90625 21 2.90625 17.671874-2.90625 21 2.90625 17.671876-2.90625 21h41.6875l-2.910156-21 2.910156-17.671876-2.910156-21 2.910156-17.671874zm0 0" fill="#efc36a"/><path d="m147.625 162.679688h-41.679688c-1.160156 0-2.253906-.496094-3.015624-1.367188-.757813-.871094-1.101563-2.03125-.945313-3.175781l2.816406-20.410157-2.796875-17.070312c-.066406-.390625-.074218-.800781-.019531-1.191406l2.816406-20.402344-2.796875-17.070312c-.066406-.390626-.066406-.800782-.007812-1.191407l2.8125-20.410156-2.796875-17.0625c-.195313-1.160156.132812-2.34375.894531-3.238281.761719-.898438 1.871094-1.410156 3.046875-1.410156h41.679687c1.175782 0 2.289063.511718 3.050782 1.410156.757812.894531 1.085937 2.078125.894531 3.238281l-2.808594 17.0625 2.824219 20.410156c.054688.390625.046875.800781-.015625 1.191407l-2.808594 17.070312 2.824219 20.402344c.054688.390625.046875.800781-.015625 1.191406l-2.808594 17.070312 2.824219 20.410157c.160156 1.144531-.183594 2.304687-.945312 3.175781-.765626.871094-1.871094 1.367188-3.023438 1.367188zm-37.09375-8h32.503906l-2.28125-16.457032c-.054687-.390625-.046875-.796875.015625-1.191406l2.808594-17.070312-2.824219-20.402344c-.054687-.390625-.046875-.796875.015625-1.191406l2.808594-17.070313-2.824219-20.410156c-.054687-.390625-.046875-.796875.015625-1.191407l2.144531-13.015624h-32.265624l2.136718 13.015624c.066406.394532.074219.800782.015625 1.191407l-2.816406 20.410156 2.800781 17.070313c.066406.394531.074219.800781.015625 1.191406l-2.816406 20.402344 2.800781 17.070312c.066406.394531.074219.800781.015625 1.191406zm0 0" fill="#63312d"/><path d="m82.195312 42.671875-20.816406-26.457031 20.816406-12.214844h41.65625l20.832032 12.214844-20.832032 26.457031zm0 0" fill="#82d9ff"/><path d="m98.195312 4h-16l-20.816406 12.214844 20.816406 26.457031h16l-20.816406-26.457031zm0 0" fill="#caf4ff"/><path d="m123.851562 46.671875h-41.65625c-1.226562 0-2.386718-.558594-3.144531-1.527344l-20.824219-26.449219c-.710937-.902343-1-2.078124-.785156-3.214843.21875-1.136719.914063-2.121094 1.90625-2.703125l20.824219-12.226563c.613281-.359375 1.308594-.550781 2.023437-.550781h41.65625c.710938 0 1.40625.191406 2.023438.550781l20.832031 12.226563c1 .582031 1.6875 1.566406 1.902344 2.703125.21875 1.136719-.070313 2.3125-.78125 3.214843l-20.832031 26.449219c-.761719.960938-1.921875 1.527344-3.144532 1.527344zm-39.714843-8h37.769531l16.792969-21.320313-15.9375-9.351562h-39.480469l-15.925781 9.351562zm0 0" fill="#63312d"/><path d="m114.449219 281.34375h24.746093v63.441406h-24.746093zm0 0" fill="#d1d1d1"/><path d="m139.195312 348.785156h-24.746093c-2.207031 0-4-1.792968-4-4v-63.441406c0-2.207031 1.792969-4 4-4h24.746093c2.207032 0 4 1.792969 4 4v63.441406c0 2.207032-1.792968 4-4 4zm-20.746093-8h16.746093v-55.441406h-16.746093zm0 0" fill="#63312d"/><path d="m110.578125 344.785156h32.488281v14.871094h-32.488281zm0 0" fill="#52b8d9"/><path d="m143.066406 363.65625h-32.488281c-2.207031 0-4-1.792969-4-4v-14.871094c0-2.210937 1.792969-4 4-4h32.488281c2.207032 0 4 1.789063 4 4v14.871094c0 2.214844-1.792968 4-4 4zm-28.488281-8h24.488281v-6.871094h-24.488281zm0 0" fill="#63312d"/><path d="m123.882812 158.679688 10.925782 20.175781-15.886719 9.34375h-31.792969l-15.886718-9.34375 10.953124-20.175781zm0 0" fill="#82d9ff"/><path d="m98.195312 158.679688h-16l-10.953124 20.175781 15.886718 9.34375h16l-15.886718-9.34375zm0 0" fill="#caf4ff"/><path d="m118.921875 192.199219h-31.792969c-.710937 0-1.414062-.191407-2.023437-.550781l-15.886719-9.335938c-1.855469-1.097656-2.511719-3.464844-1.488281-5.359375l10.960937-20.175781c.695313-1.289063 2.046875-2.089844 3.511719-2.089844h41.679687c1.472657 0 2.816407.808594 3.511719 2.097656l10.925781 20.175782c1.027344 1.894531.371094 4.261718-1.484374 5.351562l-15.890626 9.335938c-.613281.359374-1.3125.550781-2.023437.550781zm-30.703125-8h29.617188l11.621093-6.832031-7.957031-14.679688h-36.921875l-7.976563 14.6875zm0 0" fill="#63312d"/><path d="m120.976562 60.335938 2.90625-17.664063h-41.6875l2.902344 17.664063-2.902344 21 2.902344 17.671874-2.902344 21 2.902344 17.671876-2.902344 21h41.6875l-2.90625-21 2.90625-17.671876-2.90625-21 2.90625-17.671874zm0 0" fill="#f9dd9d"/><path d="m98.195312 120.007812 2.902344-21-2.902344-17.671874 2.902344-21-2.902344-17.664063h-16l2.902344 17.664063-2.902344 21 2.902344 17.671874-2.902344 21 2.902344 17.671876-2.902344 21h16l2.902344-21zm0 0" fill="#ffeecf"/><path d="m123.882812 162.679688h-41.679687c-1.160156 0-2.257813-.496094-3.015625-1.367188-.761719-.871094-1.105469-2.03125-.945312-3.175781l2.816406-20.410157-2.800782-17.070312c-.0625-.390625-.070312-.800781-.015624-1.191406l2.816406-20.402344-2.800782-17.070312c-.0625-.390626-.0625-.800782-.007812-1.191407l2.816406-20.410156-2.800781-17.0625c-.191406-1.160156.136719-2.34375.898437-3.238281.757813-.898438 1.871094-1.410156 3.046876-1.410156h41.679687c1.175781 0 2.289063.511718 3.046875 1.410156.761719.894531 1.089844 2.078125.898438 3.238281l-2.808594 17.0625 2.824218 20.410156c.054688.390625.046876.800781-.015624 1.191407l-2.808594 17.070312 2.824218 20.402344c.054688.390625.046876.800781-.015624 1.191406l-2.808594 17.070312 2.824218 20.410157c.160157 1.144531-.183593 2.304687-.945312 3.175781-.769531.871094-1.871094 1.367188-3.023438 1.367188zm-37.097656-8h32.503906l-2.277343-16.457032c-.058594-.390625-.050781-.796875.015625-1.191406l2.808594-17.070312-2.824219-20.402344c-.058594-.390625-.050781-.796875.015625-1.191406l2.808594-17.070313-2.824219-20.410156c-.058594-.390625-.050781-.796875.015625-1.191407l2.144531-13.015624h-32.265625l2.136719 13.015624c.0625.394532.070312.800782.015625 1.191407l-2.816406 20.410156 2.800781 17.070313c.0625.394531.070312.800781.015625 1.191406l-2.816406 20.402344 2.800781 17.070312c.0625.394531.070312.800781.015625 1.191406zm0 0" fill="#63312d"/><path d="m115.546875 359.65625h16.207031v85.574219h-16.207031zm0 0" fill="#d1d1d1"/><path d="m131.753906 449.230469h-16.207031c-2.207031 0-4-1.789063-4-4v-85.574219c0-2.207031 1.792969-4 4-4h16.207031c2.207032 0 4 1.792969 4 4v85.574219c0 2.21875-1.785156 4-4 4zm-12.207031-8h8.207031v-77.574219h-8.207031zm0 0" fill="#63312d"/><path d="m135.050781 445.230469h-.097656v-18.152344h-22.589844v18.152344h-.183593l-6.015626 11.082031 8.71875 5.121094h17.449219l8.71875-5.121094zm0 0" fill="#52b8d9"/><path d="m132.332031 465.433594h-17.449219c-.710937 0-1.410156-.195313-2.023437-.554688l-8.722656-5.117187c-1.855469-1.097657-2.511719-3.464844-1.488281-5.355469l5.714843-10.527344v-16.800781c0-2.207031 1.789063-4 4-4h22.589844c2.210937 0 4 1.792969 4 4v16.960937l5.617187 10.367188c1.023438 1.898438.367188 4.265625-1.488281 5.355469l-8.71875 5.117187c-.625.359375-1.320312.554688-2.03125.554688zm-16.363281-8h15.28125l4.449219-2.617188-3.792969-7c-.59375-.695312-.953125-1.601562-.953125-2.59375v-14.144531h-14.589844v14.152344c0 1.105469-.449219 2.105469-1.167969 2.832031l-3.664062 6.761719zm0 0" fill="#63312d"/><path d="m90.707031 281.34375h24.742188v63.441406h-24.742188zm0 0" fill="#f8f3f3"/><path d="m115.449219 348.785156h-24.742188c-2.207031 0-4-1.792968-4-4v-63.441406c0-2.207031 1.792969-4 4-4h24.742188c2.210937 0 4 1.792969 4 4v63.441406c0 2.207032-1.789063 4-4 4zm-20.742188-8h16.742188v-55.441406h-16.742188zm0 0" fill="#63312d"/><path d="m111.554688 188.199219h30.527343v78.265625h-30.527343zm0 0" fill="#d1d1d1"/><path d="m142.082031 270.464844h-30.527343c-2.207032 0-4-1.792969-4-4v-78.265625c0-2.207031 1.792968-4 4-4h30.527343c2.207031 0 4 1.792969 4 4v78.265625c0 2.207031-1.785156 4-4 4zm-26.527343-8h22.527343v-70.265625h-22.527343zm0 0" fill="#63312d"/><path d="m87.816406 188.199219h30.53125v78.265625h-30.53125zm0 0" fill="#f9a287"/><path d="m87.816406 188.199219h30.53125v78.265625h-30.53125zm0 0" fill="#f8f3f3"/><path d="m118.339844 270.464844h-30.53125c-2.207032 0-4-1.792969-4-4v-78.265625c0-2.207031 1.792968-4 4-4h30.53125c2.207031 0 4 1.792969 4 4v78.265625c0 2.207031-1.785156 4-4 4zm-26.523438-8h22.53125v-70.265625h-22.53125zm0 0" fill="#63312d"/><path d="m99.25 359.65625h16.214844v85.574219h-16.214844zm0 0" fill="#f8f3f3"/><path d="m115.464844 449.230469h-16.214844c-2.207031 0-4-1.789063-4-4v-85.574219c0-2.207031 1.792969-4 4-4h16.214844c2.210937 0 4 1.792969 4 4v85.574219c0 2.21875-1.789063 4-4 4zm-12.214844-8h8.214844v-77.574219h-8.214844zm0 0" fill="#63312d"/><path d="m86.835938 344.785156h32.484374v14.871094h-32.484374zm0 0" fill="#82d9ff"/><path d="m119.320312 363.65625h-32.484374c-2.210938 0-4-1.792969-4-4v-14.871094c0-2.210937 1.789062-4 4-4h32.484374c2.210938 0 4 1.789063 4 4v14.871094c0 2.214844-1.789062 4-4 4zm-28.484374-8h24.484374v-6.871094h-24.484374zm0 0" fill="#63312d"/><path d="m106.019531 266.464844h41.605469v14.878906h-41.605469zm0 0" fill="#52b8d9"/><path d="m147.625 285.34375h-41.605469c-2.210937 0-4-1.792969-4-4v-14.878906c0-2.207032 1.789063-4 4-4h41.605469c2.210938 0 4 1.792968 4 4v14.878906c0 2.207031-1.789062 4-4 4zm-37.613281-8h33.605469v-6.878906h-33.605469zm0 0" fill="#63312d"/><path d="m118.761719 445.230469h-.101563v-18.152344h-22.601562v18.152344h-.175782l-6.015624 11.082031 8.71875 5.121094h17.449218l8.710938-5.121094zm0 0" fill="#82d9ff"/><path d="m116.035156 465.433594h-17.449218c-.710938 0-1.40625-.195313-2.023438-.554688l-8.71875-5.117187c-1.867188-1.097657-2.523438-3.464844-1.496094-5.363281l5.710938-10.511719v-16.808594c0-2.207031 1.792968-4 4-4h22.601562c2.207032 0 4 1.792969 4 4v16.953125l5.605469 10.375c1.023437 1.898438.359375 4.265625-1.496094 5.355469l-8.710937 5.117187c-.609375.359375-1.3125.554688-2.023438.554688zm-16.359375-8h15.269531l4.449219-2.617188-3.777343-6.992187c-.597657-.695313-.957032-1.609375-.957032-2.601563v-14.144531h-14.601562v14.152344c0 1.097656-.441406 2.089843-1.160156 2.816406l-3.679688 6.777344zm0 0" fill="#63312d"/><path d="m82.273438 266.464844h41.609374v14.878906h-41.609374zm0 0" fill="#82d9ff"/><path d="m123.882812 285.34375h-41.609374c-2.207032 0-4-1.792969-4-4v-14.878906c0-2.207032 1.792968-4 4-4h41.609374c2.207032 0 4 1.792968 4 4v14.878906c0 2.207031-1.792968 4-4 4zm-37.609374-8h33.609374v-6.878906h-33.609374zm0 0" fill="#63312d"/><path d="m317.890625 19.910156 77.398437 106.554688c-7.742187 7.742187-15.488281 15.488281-23.230468 23.230468l-85.441406-129.785156zm0 0" fill="#f9a287"/><path d="m372.058594 153.703125c-.136719 0-.273438-.007813-.410156-.015625-1.191407-.128906-2.269532-.777344-2.933594-1.785156l-85.433594-129.789063c-.808594-1.226562-.878906-2.800781-.175781-4.097656.695312-1.296875 2.046875-2.105469 3.519531-2.105469h31.273438c1.28125 0 2.488281.617188 3.230468 1.648438l77.402344 106.554687c1.160156 1.589844.984375 3.789063-.410156 5.175781l-23.230469 23.230469c-.753906.761719-1.777344 1.183594-2.832031 1.183594zm-78.015625-129.792969 78.664062 119.488282 17.34375-17.34375-74.199219-102.144532zm0 0" fill="#63312d"/><path d="m274.21875 42.671875-20.824219-26.457031 20.824219-12.214844h41.648438l20.832031 12.214844-20.832031 26.457031zm0 0" fill="#52b8d9"/><path d="m315.867188 46.671875h-41.65625c-1.226563 0-2.382813-.558594-3.144532-1.527344l-20.824218-26.449219c-.710938-.902343-1-2.078124-.785157-3.214843.21875-1.136719.90625-2.121094 1.90625-2.703125l20.824219-12.226563c.613281-.359375 1.3125-.550781 2.023438-.550781h41.65625c.710937 0 1.40625.191406 2.023437.550781l20.832031 12.226563c1 .582031 1.6875 1.566406 1.902344 2.703125.21875 1.136719-.070312 2.3125-.78125 3.214843l-20.832031 26.449219c-.761719.960938-1.914063 1.527344-3.144531 1.527344zm-39.714844-8h37.769531l16.792969-21.320313-15.9375-9.351562h-39.480469l-15.925781 9.351562zm0 0" fill="#63312d"/><path d="m315.898438 158.679688 10.9375 20.175781-15.898438 9.34375h-31.792969l-15.886719-9.34375 10.960938-20.175781zm0 0" fill="#52b8d9"/><path d="m310.9375 192.199219h-31.792969c-.710937 0-1.414062-.191407-2.023437-.550781l-15.886719-9.335938c-1.855469-1.097656-2.511719-3.464844-1.488281-5.359375l10.960937-20.175781c.695313-1.289063 2.046875-2.089844 3.511719-2.089844h41.679688c1.472656 0 2.816406.808594 3.511718 2.097656l10.929688 20.175782c1.023437 1.894531.367187 4.261718-1.488282 5.351562l-15.890624 9.335938c-.605469.359374-1.3125.550781-2.023438.550781zm-30.703125-8h29.617187l11.621094-6.832031-7.957031-14.679688h-36.921875l-7.984375 14.6875zm0 0" fill="#63312d"/><path d="m312.996094 60.335938 2.902344-17.664063h-41.679688l2.894531 17.664063-2.894531 21 2.894531 17.671874-2.894531 21 2.894531 17.671876-2.894531 21h41.679688l-2.902344-21 2.902344-17.671876-2.902344-21 2.902344-17.671874zm0 0" fill="#efc36a"/><path d="m315.898438 162.679688h-41.679688c-1.160156 0-2.257812-.496094-3.015625-1.367188-.761719-.871094-1.105469-2.03125-.945313-3.175781l2.816407-20.410157-2.800781-17.070312c-.0625-.390625-.0625-.800781-.007813-1.191406l2.816406-20.402344-2.800781-17.070312c-.0625-.390626-.0625-.800782-.007812-1.191407l2.816406-20.410156-2.800782-17.0625c-.191406-1.160156.136719-2.34375.898438-3.238281.757812-.898438 1.871094-1.410156 3.046875-1.410156h41.679687c1.175782 0 2.289063.511718 3.046876 1.410156.761718.894531 1.089843 2.078125.898437 3.238281l-2.808594 17.0625 2.824219 20.410156c.054688.390625.046875.800781-.015625 1.191407l-2.808594 17.070312 2.824219 20.402344c.054688.390625.046875.800781-.015625 1.191406l-2.808594 17.070312 2.824219 20.410157c.160156 1.144531-.183594 2.304687-.945312 3.175781-.777344.871094-1.871094 1.367188-3.03125 1.367188zm-37.089844-8h32.503906l-2.277344-16.457032c-.058594-.390625-.050781-.796875.015625-1.191406l2.808594-17.070312-2.824219-20.402344c-.058594-.390625-.050781-.796875.015625-1.191406l2.808594-17.070313-2.824219-20.410156c-.058594-.390625-.050781-.796875.015625-1.191407l2.144531-13.015624h-32.265624l2.136718 13.015624c.0625.394532.070313.800782.015625 1.191407l-2.816406 20.410156 2.800781 17.070313c.0625.394531.070313.800781.015625 1.191406l-2.816406 20.402344 2.800781 17.070312c.0625.394531.070313.800781.015625 1.191406zm0 0" fill="#63312d"/><path d="m250.472656 42.671875-20.8125-26.457031 20.8125-12.214844h41.65625l20.824219 12.214844-20.824219 26.457031zm0 0" fill="#82d9ff"/><path d="m266.472656 4h-16l-20.8125 12.214844 20.8125 26.457031h16l-20.8125-26.457031zm0 0" fill="#caf4ff"/><path d="m292.128906 46.671875h-41.65625c-1.222656 0-2.382812-.558594-3.140625-1.527344l-20.816406-26.449219c-.714844-.902343-1-2.078124-.785156-3.214843.214843-1.136719.902343-2.121094 1.902343-2.703125l20.816407-12.226563c.617187-.359375 1.3125-.550781 2.023437-.550781h41.65625c.714844 0 1.410156.191406 2.023438.550781l20.824218 12.226563c1 .582031 1.691407 1.566406 1.90625 2.703125.214844 1.136719-.074218 2.3125-.785156 3.214843l-20.824218 26.449219c-.757813.960938-1.917969 1.527344-3.144532 1.527344zm-39.710937-8h37.777343l16.78125-21.320313-15.925781-9.351562h-39.488281l-15.929688 9.351562zm0 0" fill="#63312d"/><path d="m282.722656 281.34375h24.742188v63.441406h-24.742188zm0 0" fill="#d1d1d1"/><path d="m307.472656 348.785156h-24.742187c-2.207031 0-4-1.792968-4-4v-63.441406c0-2.207031 1.792969-4 4-4h24.742187c2.210938 0 4 1.792969 4 4v63.441406c0 2.207032-1.789062 4-4 4zm-20.75-8h16.742188v-55.441406h-16.742188zm0 0" fill="#63312d"/><path d="m278.859375 344.785156h32.488281v14.871094h-32.488281zm0 0" fill="#52b8d9"/><path d="m311.339844 363.65625h-32.488282c-2.210937 0-4-1.792969-4-4v-14.871094c0-2.210937 1.789063-4 4-4h32.488282c2.207031 0 4 1.789063 4 4v14.871094c0 2.214844-1.785156 4-4 4zm-28.488282-8h24.488282v-6.871094h-24.488282zm0 0" fill="#63312d"/><path d="m292.164062 158.679688 10.925782 20.175781-15.894532 9.34375h-31.785156l-15.886718-9.34375 10.949218-20.175781zm0 0" fill="#82d9ff"/><path d="m266.472656 158.679688h-16l-10.949218 20.175781 15.886718 9.34375h16l-15.886718-9.34375zm0 0" fill="#caf4ff"/><path d="m287.195312 192.199219h-31.785156c-.710937 0-1.414062-.191407-2.023437-.550781l-15.886719-9.335938c-1.859375-1.097656-2.515625-3.464844-1.488281-5.359375l10.957031-20.175781c.699219-1.289063 2.050781-2.089844 3.511719-2.089844h41.691406c1.46875 0 2.8125.808594 3.511719 2.097656l10.925781 20.175782c1.023437 1.894531.367187 4.261718-1.488281 5.351562l-15.886719 9.335938c-.625.359374-1.328125.550781-2.039063.550781zm-30.695312-8h29.605469l11.625-6.832031-7.953125-14.679688h-36.925782l-7.976562 14.6875zm0 0" fill="#63312d"/><path d="m289.257812 60.335938 2.90625-17.664063h-41.691406l2.898438 17.664063-2.898438 21 2.898438 17.671874-2.898438 21 2.898438 17.671876-2.898438 21h41.691406l-2.90625-21 2.90625-17.671876-2.90625-21 2.90625-17.671874zm0 0" fill="#f9dd9d"/><path d="m266.472656 120.007812 2.898438-21-2.898438-17.671874 2.898438-21-2.898438-17.664063h-16l2.898438 17.664063-2.898438 21 2.898438 17.671874-2.898438 21 2.898438 17.671876-2.898438 21h16l2.898438-21zm0 0" fill="#ffeecf"/><path d="m292.164062 162.679688h-41.691406c-1.160156 0-2.253906-.496094-3.015625-1.367188-.757812-.871094-1.101562-2.03125-.941406-3.175781l2.816406-20.410157-2.800781-17.070312c-.066406-.390625-.074219-.800781-.015625-1.191406l2.816406-20.402344-2.800781-17.070312c-.066406-.390626-.066406-.800782-.007812-1.191407l2.816406-20.410156-2.808594-17.070313c-.191406-1.160156.136719-2.34375.894531-3.242187.761719-.894531 1.871094-1.40625 3.046875-1.40625h41.691406c1.175782 0 2.285157.511719 3.046876 1.40625.757812.898437 1.085937 2.082031.894531 3.242187l-2.808594 17.0625 2.824219 20.410157c.058594.390625.050781.800781-.015625 1.191406l-2.808594 17.070313 2.824219 20.402343c.058594.390625.050781.800781-.015625 1.191407l-2.808594 17.070312 2.824219 20.410156c.160156 1.144532-.183594 2.304688-.941406 3.175782-.761719.878906-1.867188 1.375-3.015626 1.375zm-37.097656-8h32.503906l-2.28125-16.457032c-.054687-.390625-.046874-.796875.015626-1.191406l2.808593-17.070312-2.824219-20.402344c-.054687-.390625-.046874-.796875.015626-1.191406l2.808593-17.070313-2.824219-20.410156c-.054687-.390625-.046874-.796875.015626-1.191407l2.144531-13.015624h-32.261719l2.132812 13.015624c.066407.394532.074219.800782.019532 1.191407l-2.816406 20.410156 2.796874 17.070313c.066407.394531.074219.800781.019532 1.191406l-2.816406 20.402344 2.796874 17.070312c.066407.394531.074219.800781.019532 1.191406zm0 0" fill="#63312d"/><path d="m283.835938 359.65625h16.207031v85.574219h-16.207031zm0 0" fill="#d1d1d1"/><path d="m300.035156 449.230469h-16.207031c-2.210937 0-4-1.789063-4-4v-85.574219c0-2.207031 1.789063-4 4-4h16.207031c2.207032 0 4 1.792969 4 4v85.574219c0 2.21875-1.785156 4-4 4zm-12.207031-8h8.207031v-77.574219h-8.207031zm0 0" fill="#63312d"/><path d="m303.332031 445.230469h-.105469v-18.152344h-22.585937v18.152344h-.183594l-6.015625 11.082031 8.722656 5.121094h17.445313l8.710937-5.121094zm0 0" fill="#52b8d9"/><path d="m300.609375 465.433594h-17.445313c-.714843 0-1.410156-.195313-2.027343-.554688l-8.71875-5.117187c-1.855469-1.097657-2.511719-3.464844-1.488281-5.363281l5.710937-10.519532v-16.800781c0-2.207031 1.792969-4 4-4h22.585937c2.207032 0 4 1.792969 4 4v16.953125l5.617188 10.375c1.023438 1.898438.359375 4.257812-1.496094 5.355469l-8.714844 5.117187c-.613281.359375-1.320312.554688-2.023437.554688zm-16.367187-8h15.273437l4.445313-2.617188-3.78125-6.984375c-.601563-.695312-.960938-1.609375-.960938-2.601562v-14.152344h-14.585938v14.152344c0 1.105469-.445312 2.097656-1.167968 2.824219l-3.671875 6.769531zm0 0" fill="#63312d"/><path d="m258.984375 281.34375h24.746094v63.441406h-24.746094zm0 0" fill="#f8f3f3"/><path d="m283.730469 348.785156h-24.746094c-2.207031 0-4-1.792968-4-4v-63.441406c0-2.207031 1.792969-4 4-4h24.746094c2.207031 0 4 1.792969 4 4v63.441406c0 2.207032-1.792969 4-4 4zm-20.746094-8h16.746094v-55.441406h-16.746094zm0 0" fill="#63312d"/><path d="m279.835938 188.199219h30.527343v78.265625h-30.527343zm0 0" fill="#d1d1d1"/><path d="m310.355469 270.464844h-30.519531c-2.210938 0-4-1.792969-4-4v-78.265625c0-2.207031 1.789062-4 4-4h30.519531c2.207031 0 4 1.792969 4 4v78.265625c0 2.207031-1.785157 4-4 4zm-26.519531-8h22.519531v-70.265625h-22.519531zm0 0" fill="#63312d"/><path d="m256.089844 188.199219h30.527344v78.265625h-30.527344zm0 0" fill="#f9a287"/><path d="m256.089844 188.199219h30.527344v78.265625h-30.527344zm0 0" fill="#f8f3f3"/><path d="m286.617188 270.464844h-30.527344c-2.207032 0-4-1.792969-4-4v-78.265625c0-2.207031 1.792968-4 4-4h30.527344c2.210937 0 4 1.792969 4 4v78.265625c0 2.207031-1.789063 4-4 4zm-26.527344-8h22.527344v-70.265625h-22.527344zm0 0" fill="#63312d"/><path d="m267.53125 359.65625h16.214844v85.574219h-16.214844zm0 0" fill="#f8f3f3"/><path d="m283.746094 449.230469h-16.214844c-2.210938 0-4-1.789063-4-4v-85.574219c0-2.207031 1.789062-4 4-4h16.214844c2.207031 0 4 1.792969 4 4v85.574219c0 2.21875-1.792969 4-4 4zm-12.214844-8h8.214844v-77.574219h-8.214844zm0 0" fill="#63312d"/><path d="m255.113281 344.785156h32.496094v14.871094h-32.496094zm0 0" fill="#82d9ff"/><path d="m287.601562 363.65625h-32.496093c-2.207031 0-4-1.792969-4-4v-14.871094c0-2.210937 1.792969-4 4-4h32.496093c2.207032 0 4 1.789063 4 4v14.871094c0 2.214844-1.785156 4-4 4zm-28.488281-8h24.496094v-6.871094h-24.496094zm0 0" fill="#63312d"/><path d="m274.296875 266.464844h41.609375v14.878906h-41.609375zm0 0" fill="#52b8d9"/><path d="m315.898438 285.34375h-41.609376c-2.207031 0-4-1.792969-4-4v-14.878906c0-2.207032 1.792969-4 4-4h41.609376c2.207031 0 4 1.792968 4 4v14.878906c0 2.207031-1.785157 4-4 4zm-37.601563-8h33.609375v-6.878906h-33.609375zm0 0" fill="#63312d"/><path d="m287.035156 445.230469h-.097656v-18.152344h-22.589844v18.152344h-.183594l-6.019531 11.082031 8.722657 5.121094h17.4375l8.722656-5.121094zm0 0" fill="#82d9ff"/><path d="m284.304688 465.433594h-17.4375c-.714844 0-1.410157-.195313-2.023438-.554688l-8.722656-5.117187c-1.863282-1.097657-2.519532-3.464844-1.496094-5.363281l5.714844-10.511719v-16.808594c0-2.207031 1.789062-4 4-4h22.589844c2.207031 0 4 1.792969 4 4v16.953125l5.617187 10.375c1.023437 1.898438.359375 4.265625-1.496094 5.355469l-8.71875 5.117187c-.617187.359375-1.3125.554688-2.027343.554688zm-16.351563-8h15.273437l4.457032-2.617188-3.777344-6.984375c-.601562-.695312-.960938-1.609375-.960938-2.601562v-14.152344h-14.589843v14.152344c0 1.097656-.441407 2.089843-1.160157 2.816406l-3.679687 6.777344zm0 0" fill="#63312d"/><path d="m250.554688 266.464844h41.609374v14.878906h-41.609374zm0 0" fill="#82d9ff"/><path d="m292.164062 285.34375h-41.609374c-2.207032 0-4-1.792969-4-4v-14.878906c0-2.207032 1.792968-4 4-4h41.609374c2.207032 0 4 1.792968 4 4v14.878906c0 2.207031-1.792968 4-4 4zm-37.609374-8h33.609374v-6.878906h-33.609374zm0 0" fill="#63312d"/></svg>